<svg width="749" height="760" viewBox="0 0 749 760" fill="none" xmlns="http://www.w3.org/2000/svg">
<rect x="749" y="749" width="749" height="749" rx="157" transform="rotate(-180 749 749)" fill="#008659"/>
<path d="M216.525 326.09C214.312 326.114 212.132 325.42 210.209 324.078C208.797 323.106 207.559 321.798 206.565 320.231C205.571 318.664 204.842 316.87 204.42 314.954C203.999 313.038 203.893 311.038 204.109 309.071C204.326 307.103 204.86 305.209 205.68 303.498C221.496 271.13 269.616 195.58 374.616 195.58C420.118 195.58 460.027 210.235 493.175 239.123C520.459 262.831 535.75 289.668 543.034 302.593C543.958 304.222 544.607 306.062 544.942 308.003C545.277 309.944 545.293 311.948 544.987 313.897C544.681 315.845 544.06 317.699 543.162 319.349C542.263 320.999 541.104 322.412 539.753 323.505C536.992 325.743 533.628 326.574 530.376 325.823C527.123 325.072 524.237 322.797 522.329 319.481C509.147 296.236 468.952 225.504 374.616 225.504C282.536 225.504 240.905 290.593 227.345 318.506C226.255 320.837 224.678 322.768 222.776 324.102C220.874 325.435 218.716 326.121 216.525 326.09Z" fill="white"/>
<path d="M427.517 621.813C426.47 621.828 425.426 621.683 424.408 621.38C348.242 598.245 319.802 504.882 318.646 500.999L318.465 500.144C317.842 497.448 302.559 433.425 326.02 395.927C336.774 378.827 353.132 370.056 374.73 370.056C394.812 370.056 409.298 377.711 419.257 393.553C427.46 406.488 430.741 422.441 433.916 437.811C440.585 469.817 445.4 486.625 473.119 488.355C485.292 489.11 493.29 480.379 497.826 472.946C510.09 452.677 512.223 419.635 502.978 390.465C491.1 352.816 448.944 281.832 374.615 281.832C342.886 281.832 313.732 294.335 290.353 317.832C271.002 337.295 255.67 364.775 248.287 393.02C234.596 445.606 252.553 528.268 252.725 529.022C253.145 530.946 253.245 532.953 253.022 534.926C252.798 536.898 252.255 538.796 251.424 540.507C250.593 542.217 249.491 543.707 248.183 544.887C246.875 546.068 245.388 546.915 243.808 547.379C240.618 548.419 237.222 547.886 234.349 545.893C231.475 543.9 229.352 540.606 228.436 536.717C227.615 532.945 208.437 444.781 224.252 384.007C241.479 318.154 294.643 251.767 374.64 251.767C411.612 251.767 446.541 267.177 475.694 296.276C498.269 318.908 516.71 349.305 526.357 379.692C538.621 418.488 535.331 462.032 517.998 490.478C506.448 509.448 490.001 519.366 471.782 518.29C424.318 515.373 415.787 474.746 409.569 445.113C403.171 414.716 399.077 400.061 374.64 400.061C361.22 400.061 351.794 404.587 345.929 413.962C337.931 426.787 337.308 446.833 338.194 461.378C338.775 471.512 340.177 481.549 342.377 491.343C344.33 497.378 369.751 573.823 430.635 592.321C432.208 592.778 433.692 593.614 435 594.78C436.308 595.947 437.414 597.42 438.253 599.115C439.093 600.81 439.649 602.692 439.891 604.653C440.132 606.614 440.053 608.614 439.658 610.537C438.915 613.783 437.326 616.643 435.134 618.679C432.942 620.714 430.267 621.815 427.517 621.813Z" fill="white"/>
<path d="M329.753 614.912C328.045 614.917 326.355 614.499 324.782 613.685C323.209 612.871 321.786 611.677 320.598 610.175C290.115 570.946 272.872 527.08 266.384 472.231V471.939C262.741 435.628 268.073 384.218 294.2 348.872C313.486 322.79 340.597 309.533 374.64 309.533C414.901 309.533 446.541 332.487 466.269 375.809C480.584 407.283 483.422 438.645 483.496 439.933C483.646 441.918 483.475 443.92 482.993 445.824C482.511 447.728 481.728 449.497 480.688 451.029C479.648 452.562 478.371 453.827 476.932 454.754C475.492 455.68 473.918 456.25 472.298 456.429C469.031 456.864 465.755 455.706 463.179 453.204C460.602 450.703 458.93 447.06 458.525 443.061C456.365 424.243 451.398 406.073 443.875 389.459C428.584 356.376 405.32 339.558 374.55 339.558C347.972 339.558 327.177 349.365 312.871 368.728C292.248 396.641 288.261 439.641 291.091 468.087C296.776 516.589 311.976 555.174 338.817 589.655C339.937 591.084 340.812 592.775 341.389 594.626C341.965 596.478 342.233 598.453 342.174 600.434C342.116 602.415 341.734 604.361 341.05 606.157C340.366 607.953 339.395 609.562 338.194 610.889C335.881 613.46 332.875 614.892 329.753 614.912V614.912Z" fill="white"/>
<path d="M470.182 571.701C443.522 571.701 420.857 562.648 402.72 544.653C366.282 508.653 362.196 450.022 362.016 447.547C361.759 443.486 362.829 439.465 364.989 436.371C367.15 433.276 370.225 431.361 373.537 431.046C376.85 430.731 380.128 432.043 382.652 434.692C385.176 437.342 386.738 441.112 386.994 445.174C387.085 446.039 390.727 493.998 418.814 521.619C435.434 537.894 457.648 544.351 485.022 540.579C488.293 540.093 491.589 541.214 494.188 543.698C496.788 546.182 498.479 549.828 498.893 553.837C499.072 555.817 498.928 557.821 498.469 559.733C498.01 561.644 497.244 563.424 496.218 564.969C495.192 566.514 493.925 567.793 492.491 568.731C491.058 569.669 489.486 570.248 487.868 570.433C481.998 571.273 476.093 571.696 470.182 571.701V571.701ZM491.248 171.982C480.846 163.684 443.965 139 374.616 139C301.821 139 264.85 166.269 256.671 173.199C256.131 173.606 255.626 174.078 255.162 174.607C255.113 174.665 255.049 174.701 254.982 174.708C253.676 176.106 252.628 177.83 251.908 179.764C251.188 181.698 250.812 183.797 250.806 185.923C250.829 187.916 251.172 189.884 251.815 191.714C252.459 193.544 253.391 195.2 254.558 196.588C255.724 197.975 257.103 199.067 258.614 199.8C260.126 200.533 261.74 200.894 263.365 200.86C265.97 200.858 268.512 199.879 270.65 198.054C271.002 197.732 302.822 169.065 374.641 169.065C446.459 169.065 478.451 197.632 478.796 197.843C480.98 199.829 483.632 200.888 486.351 200.86C487.977 200.891 489.593 200.527 491.104 199.79C492.616 199.054 493.994 197.958 495.159 196.566C496.324 195.175 497.254 193.515 497.895 191.681C498.536 189.848 498.875 187.878 498.893 185.883C498.894 182.896 498.166 179.976 496.804 177.499C495.442 175.022 493.507 173.101 491.248 171.982V171.982Z" fill="white"/>
<rect x="292" y="252" width="169" height="252" rx="84.5" fill="#008659"/>
<circle cx="545" cy="556" r="204" transform="rotate(-180 545 556)" fill="#D9D9D9" fill-opacity="0.15"/>
<path d="M382.4 439.8C372.533 439.8 363.8 437.867 356.2 434C348.733 430 342.867 423.467 338.6 414.4C334.467 405.333 332.4 393.333 332.4 378.4C332.4 362.667 334.6 350.4 339 341.6C343.4 332.8 349.333 326.533 356.8 322.8C364.267 319.067 372.667 317.2 382 317.2C391.467 317.2 399.467 319 406 322.6C412.667 326.067 417.733 331.867 421.2 340C424.667 348.133 426.4 359 426.4 372.6V387H345.8L356.4 383.4C356.133 390.333 356.333 396.067 357 400.6C357.667 405.133 358.6 408.6 359.8 411C361.133 413.4 362.467 415.2 363.8 416.4C365.4 417.867 367.4 419 369.8 419.8C372.2 420.467 375.2 420.8 378.8 420.8C382.533 420.8 386.4 420.467 390.4 419.8C394.533 419.133 398.4 418.333 402 417.4C405.6 416.467 408.8 415.6 411.6 414.8C414.4 413.867 416.467 413.2 417.8 412.8L423.6 430.2C422.4 430.733 419.8 431.8 415.8 433.4C411.8 435 406.933 436.467 401.2 437.8C395.467 439.133 389.2 439.8 382.4 439.8ZM356.4 375.6L345.8 369.8L413.2 368.4L402.8 374.6C402.8 366.467 402.533 359.6 402 354C401.6 348.4 400.467 344.2 398.6 341.4C397.667 340.2 396.133 339.067 394 338C392 336.8 388.2 336.2 382.6 336.2C376.6 336.2 372.067 336.867 369 338.2C366.067 339.4 363.8 341 362.2 343C357.8 348.2 355.867 359.067 356.4 375.6Z" fill="white"/>
</svg>
