<svg width="749" height="749" viewBox="0 0 749 749" fill="none" xmlns="http://www.w3.org/2000/svg">
<rect width="749" height="749" rx="157" fill="#008659"/>
<circle cx="536" cy="536" r="213" fill="#D9D9D9" fill-opacity="0.15"/>
<path d="M562.444 217.556C571.036 208.965 571.036 195.035 562.444 186.444C553.853 177.852 539.923 177.852 531.331 186.444L562.444 217.556ZM180 546.887C180 559.038 189.85 568.887 202 568.887H400C412.151 568.887 422 559.038 422 546.887C422 534.737 412.151 524.887 400 524.887H224L224 348.887C224 336.737 214.151 326.887 202 326.887C189.85 326.887 180 336.737 180 348.887L180 546.887ZM531.331 186.444L186.444 531.331L217.557 562.444L562.444 217.556L531.331 186.444Z" fill="white"/>
</svg>
