<svg width="749" height="760" viewBox="0 0 749 760" fill="none" xmlns="http://www.w3.org/2000/svg">
<rect x="749" y="749" width="749" height="749" rx="157" transform="rotate(-180 749 749)" fill="#008659"/>
<circle cx="545" cy="556" r="204" transform="rotate(-180 545 556)" fill="#D9D9D9" fill-opacity="0.15"/>
<path d="M209.921 540.074C201.33 548.666 201.33 562.595 209.921 571.187C218.513 579.778 232.442 579.778 241.034 571.187L209.921 540.074ZM577.63 225.478C577.63 213.328 567.78 203.478 555.63 203.478H357.63C345.48 203.478 335.63 213.328 335.63 225.478C335.63 237.628 345.48 247.478 357.63 247.478H533.63V423.478C533.63 435.628 543.48 445.478 555.63 445.478C567.78 445.478 577.63 435.628 577.63 423.478V225.478ZM241.034 571.187L571.186 241.034L540.074 209.922L209.921 540.074L241.034 571.187Z" fill="white"/>
</svg>
