<svg xmlns="http://www.w3.org/2000/svg" width="54" height="54" fill="none" viewBox="0 0 54 54"><path fill="url(#paint0_linear_194_3)" d="M27 0.75C12.5039 0.75 0.75 12.5039 0.75 27C0.75 41.4961 12.5039 53.25 27 53.25C41.4961 53.25 53.25 41.4961 53.25 27C53.25 12.5039 41.4961 0.75 27 0.75ZM36.7852 37.875C34.4062 40.0664 31.1602 41.3555 27.2871 41.3555C21.6797 41.3555 16.8281 38.1387 14.4668 33.4512C13.4941 31.5117 12.9375 29.3203 12.9375 27C12.9375 24.6797 13.4941 22.4883 14.4668 20.5488C16.8281 15.8555 21.6797 12.6387 27.2871 12.6387C31.1543 12.6387 34.4004 14.0625 36.8906 16.377L32.7773 20.4961C31.2891 19.0723 29.3965 18.3516 27.293 18.3516C23.5547 18.3516 20.3906 20.877 19.2598 24.2695C18.9727 25.1309 18.8086 26.0508 18.8086 27C18.8086 27.9492 18.9727 28.8691 19.2598 29.7305C20.3906 33.123 23.5547 35.6484 27.2871 35.6484C29.2207 35.6484 30.8613 35.1387 32.1445 34.2773C33.668 33.2578 34.6758 31.7402 35.0098 29.9414H27.2871V24.3867H40.8047C40.9746 25.3301 41.0625 26.3086 41.0625 27.3223C41.0625 31.6992 39.498 35.373 36.7852 37.875Z"/><defs><linearGradient id="paint0_linear_194_3" x1="27" x2="27" y1=".75" y2="53.25" gradientUnits="userSpaceOnUse"><stop stop-color="#0BF790"/><stop stop-color="#0BF790"/><stop offset="0" stop-color="#0BF790"/><stop offset=".854" stop-color="#38E3B8"/><stop offset="1" stop-color="#40DFBF"/></linearGradient></defs></svg>