<svg width="27" height="22" viewBox="0 0 27 22" fill="none" xmlns="http://www.w3.org/2000/svg">
<path d="M26.9474 2.59242C25.9383 3.03945 24.868 3.33288 23.772 3.46295C24.9136 2.77874 25.7901 1.69526 26.2028 0.404316C25.1176 1.0483 23.9303 1.50203 22.6922 1.74589C21.6837 0.671474 20.2469 0 18.6567 0C15.6035 0 13.128 2.47537 13.128 5.52842C13.128 5.96179 13.1769 6.38368 13.2712 6.78842C8.67642 6.55779 4.60274 4.35684 1.87589 1.012C1.40011 1.82853 1.12747 2.77832 1.12747 3.79137C1.12747 5.70947 2.10358 7.40158 3.58695 8.39305C2.709 8.36555 1.85037 8.12843 1.08274 7.70147C1.08242 7.72463 1.08242 7.74779 1.08242 7.77105C1.08242 10.4497 2.98811 12.6842 5.51716 13.1921C4.70304 13.4135 3.84908 13.4459 3.02053 13.2868C3.724 15.4833 5.76579 17.0816 8.18495 17.1263C6.29284 18.609 3.90895 19.4929 1.31884 19.4929C0.872526 19.4929 0.432526 19.4667 0 19.4157C2.44663 20.9843 5.35263 21.8996 8.47474 21.8996C18.6439 21.8996 24.2046 13.4753 24.2046 6.16958C24.2046 5.92979 24.1994 5.69137 24.1886 5.45431C25.271 4.67188 26.2052 3.70275 26.9474 2.59242Z" fill="white"/>
</svg>
