<svg width="40" height="30" viewBox="0 0 40 30" fill="none" xmlns="http://www.w3.org/2000/svg">
<path d="M9.09094 29.8522V14.4776L4.29797 10.1155L0 7.69482V27.139C0 28.6403 1.22266 29.8522 2.72734 29.8522H9.09094Z" fill="#4285F4"/>
<path d="M30.9092 29.8523H37.2728C38.782 29.8523 40.0001 28.6358 40.0001 27.1391V7.69507L35.132 10.4677L30.9092 14.4777V29.8523Z" fill="#34A853"/>
<path d="M9.09091 14.4778L8.43872 8.47053L9.09091 2.72095L20 10.8604L30.909 2.72095L31.6386 8.16012L30.909 14.4778L20 22.6173L9.09091 14.4778Z" fill="#EA4335"/>
<path d="M30.9092 2.72078V14.4777L40.0001 7.69488V4.07731C40.0001 0.722129 36.1501 -1.19057 33.4548 0.82161L30.9092 2.72078Z" fill="#FBBC04"/>
<path d="M0 7.69495L4.18109 10.8146L9.09094 14.4777V2.72085L6.54531 0.821681C3.84531 -1.19065 0 0.722199 0 4.07723V7.69479V7.69495Z" fill="#C5221F"/>
</svg>
