<svg width="312" height="121" viewBox="0 0 312 121" fill="none" xmlns="http://www.w3.org/2000/svg">
<rect width="312" height="120" rx="4" fill="#26A583"/>
<path d="M156 61L301.492 120.25H10.5077L156 61Z" fill="#E6E6E6"/>
<path opacity="0.6" d="M24.5 65L27.98 75.7102H39.2414L30.1307 82.3295L33.6107 93.0398L24.5 86.4205L15.3893 93.0398L18.8693 82.3295L9.75862 75.7102H21.02L24.5 65Z" fill="white"/>
<path opacity="0.6" d="M288 15L289.796 20.5279H295.608L290.906 23.9443L292.702 29.4721L288 26.0557L283.298 29.4721L285.094 23.9443L280.392 20.5279H286.204L288 15Z" fill="white"/>
<path fill-rule="evenodd" clip-rule="evenodd" d="M152.988 87.001C163.236 87.0371 172.063 88.3392 175.086 90.1865C177.977 91.9529 173.764 93.7897 165.905 94.8944C157.707 96.0468 146.706 96.4515 138.271 95.3616C129.133 94.1809 124.7 92.0038 128.19 90.0211C131.618 88.0738 142.112 86.9626 152.988 87.001Z" fill="#A6A6A6"/>
<circle cx="150.5" cy="47.5" r="34.5" fill="#00CF98"/>
<path fill-rule="evenodd" clip-rule="evenodd" d="M131.625 27.6042C131.625 27.1787 131.794 26.7707 132.095 26.4698C132.396 26.169 132.804 26 133.229 26H168.521C168.946 26 169.354 26.169 169.655 26.4698C169.956 26.7707 170.125 27.1787 170.125 27.6042V29.2083H178.146C178.571 29.2083 178.979 29.3773 179.28 29.6782C179.581 29.979 179.75 30.387 179.75 30.8125V40.4375C179.75 42.5648 178.905 44.6049 177.401 46.1091C175.897 47.6133 173.856 48.4583 171.729 48.4583H169.029C167.883 51.6941 165.893 54.565 163.265 56.7743C160.638 58.9836 157.468 60.4512 154.083 61.0254V70.9167H163.708C164.134 70.9167 164.542 71.0857 164.843 71.3865C165.143 71.6874 165.312 72.0954 165.312 72.5208V82.1458C165.312 82.5713 165.143 82.9793 164.843 83.2802C164.542 83.581 164.134 83.75 163.708 83.75H138.042C137.616 83.75 137.208 83.581 136.907 83.2802C136.607 82.9793 136.438 82.5713 136.438 82.1458V72.5208C136.438 72.0954 136.607 71.6874 136.907 71.3865C137.208 71.0857 137.616 70.9167 138.042 70.9167H147.667V61.0254C144.282 60.4512 141.112 58.9836 138.485 56.7743C135.857 54.565 133.867 51.6941 132.721 48.4583H130.021C127.894 48.4583 125.853 47.6133 124.349 46.1091C122.845 44.6049 122 42.5648 122 40.4375V30.8125C122 30.387 122.169 29.979 122.47 29.6782C122.771 29.3773 123.179 29.2083 123.604 29.2083H131.625V27.6042ZM170.125 42.0417V32.4167H176.542V40.4375C176.542 41.7139 176.035 42.9379 175.132 43.8405C174.23 44.743 173.006 45.25 171.729 45.25H170.125V42.0417ZM131.625 32.4167H125.208V40.4375C125.208 41.7139 125.715 42.9379 126.618 43.8405C127.52 44.743 128.744 45.25 130.021 45.25H131.625V32.4167Z" fill="white"/>
<circle cx="20" cy="31" r="5" fill="white" fill-opacity="0.74"/>
<circle cx="280" cy="51" r="5" fill="white" fill-opacity="0.74"/>
<circle cx="52" cy="37" r="5" fill="white" fill-opacity="0.74"/>
<circle cx="77" cy="30" r="5" fill="white" fill-opacity="0.74"/>
<circle cx="221" cy="29" r="5" fill="white" fill-opacity="0.74"/>
<circle cx="82" cy="56" r="5" fill="white" fill-opacity="0.74"/>
<circle cx="215" cy="56" r="5" fill="white" fill-opacity="0.74"/>
<circle cx="43" cy="19" r="5" fill="white" fill-opacity="0.74"/>
<circle cx="250" cy="18" r="5" fill="white" fill-opacity="0.74"/>
<circle cx="246" cy="40" r="5" fill="white" fill-opacity="0.74"/>
<circle cx="258" cy="55" r="5" fill="white" fill-opacity="0.74"/>
<circle cx="242" cy="75" r="5" fill="white" fill-opacity="0.74"/>
<circle cx="60" cy="58" r="5" fill="white" fill-opacity="0.74"/>
<circle cx="52" cy="72" r="5" fill="white" fill-opacity="0.74"/>
<circle cx="18" cy="53" r="5" fill="white" fill-opacity="0.74"/>
<circle cx="285" cy="83" r="5" fill="white" fill-opacity="0.74"/>
</svg>
