<svg xmlns="http://www.w3.org/2000/svg" xmlns:svg="http://www.w3.org/2000/svg" id="svg84" width="214.318" height="194.117" version="1.1" viewBox="0 0 56.705 51.36"><defs id="defs78"><mask id="atlg7l4kpb" fill="#fff"><path id="use19" d="M 0,9.4935146 H 11.677915 V 0.01613958 H 0 Z" style="stroke-width:.264583"/></mask></defs><metadata id="metadata81"/><g id="layer1"><g style="fill:none;fill-rule:evenodd" id="g28" transform="matrix(1.4516333,0,0,1.4516333,-11.609076,-18.233753)"><path id="path15" fill="#ed303b" d="m 30.315,24.09 h 8.371 V 0.564 h -8.37 V 24.092 Z M 19.21,0.564 13.79,22.488 8.371,0.563 H 0 l 5.816,23.528 h 15.95 L 27.58,0.563 h -8.37 z" transform="translate(8,12)"/><g id="g26" transform="translate(8,12.058)"><path id="path17" fill="#ffd300" d="m 39.058,31.324 c 0,2.517 -2.04,4.557 -4.557,4.557 -2.517,0 -4.557,-2.04 -4.557,-4.557 0,-2.516 2.04,-4.557 4.557,-4.557 2.517,0 4.557,2.04 4.557,4.557"/><mask id="mask72" fill="#fff"><path id="use70" d="M 0,9.4935146 H 11.677915 V 0.01613958 H 0 Z" style="stroke-width:.264583"/></mask><text id="text24" fill="#ed303b" font-family="Vi-SemiBold, Vi" font-size="2.995" font-weight="500" mask="url(#atlg7l4kpb)"><tspan id="tspan22" x="39.839" y="2.013">TM</tspan></text></g></g></g></svg>